<svg width="20" height="20" viewBox="0 0 20 20" fill="none" xmlns="http://www.w3.org/2000/svg">
<path fill-rule="evenodd" clip-rule="evenodd" d="M18.1667 10.1895C18.1667 9.59856 18.1137 9.03038 18.0152 8.48492H10.1667V11.7084H14.6516C14.4584 12.7501 13.8713 13.6327 12.9887 14.2236V16.3145H15.6819C17.2577 14.8637 18.1667 12.7273 18.1667 10.1895V10.1895Z" fill="#4285F4"/>
<path fill-rule="evenodd" clip-rule="evenodd" d="M10.1667 18.3333C12.4167 18.3333 14.3031 17.587 15.6818 16.3143L12.9887 14.2234C12.2425 14.7234 11.2879 15.0189 10.1667 15.0189C7.99624 15.0189 6.15912 13.5529 5.50382 11.5833H2.71973V13.7423C4.09094 16.4658 6.90912 18.3333 10.1667 18.3333V18.3333Z" fill="#34A853"/>
<path fill-rule="evenodd" clip-rule="evenodd" d="M5.50371 11.5833C5.33704 11.0833 5.24234 10.5492 5.24234 9.99993C5.24234 9.45069 5.33704 8.9166 5.50371 8.4166V6.25751H2.71962C2.15522 7.38251 1.83325 8.65523 1.83325 9.99993C1.83325 11.3446 2.15522 12.6174 2.71962 13.7424L5.50371 11.5833V11.5833Z" fill="#FBBC05"/>
<path fill-rule="evenodd" clip-rule="evenodd" d="M10.1667 4.98108C11.3902 4.98108 12.4887 5.40154 13.3523 6.22729L15.7425 3.83714C14.2993 2.49244 12.4129 1.66669 10.1667 1.66669C6.90912 1.66669 4.09094 3.53411 2.71973 6.2576L5.50382 8.41669C6.15912 6.44699 7.99624 4.98108 10.1667 4.98108V4.98108Z" fill="#EA4335"/>
</svg>
