<svg width="73" height="26" viewBox="0 0 73 26" fill="none" xmlns="http://www.w3.org/2000/svg">
<path d="M11.4598 15.5943C16.9318 15.5943 20.427 17.5614 20.427 20.8114C20.427 24.0614 16.9318 26 11.4598 26C5.98772 26 2.4925 24.0614 2.4925 20.8114C2.4925 17.5614 5.98772 15.5943 11.4598 15.5943ZM0 13.9693V1.625H4.44066V4.47588H8.33697V1.625H12.7776V13.9693H0ZM4.44066 10.5197H8.33697V7.89693H4.44066V10.5197ZM6.9618 20.8114C6.9618 22.0658 8.42292 22.5789 11.4598 22.5789C14.4966 22.5789 15.9577 22.0658 15.9577 20.8114C15.9577 19.557 14.4966 19.0724 11.4598 19.0724C8.42292 19.0724 6.9618 19.557 6.9618 20.8114ZM15.6139 15.1096V0H20.0832V5.75877H23.3206V9.4079H20.0832V15.1096H15.6139Z" fill="#FBD617"/>
<path d="M25.2694 0.883772H37.7033V4.27632H29.7674V5.27412H37.1303V8.55263H29.7674V9.63597C33.6351 9.60746 36.2135 9.52193 39.1357 9.0943L39.5082 12.4868C36.013 13.0285 32.8329 13.057 27.5327 13.057H25.2694V0.883772ZM27.5614 17.5044V14.1689H45.1235V21.5241H32.0307V22.4934H45.7824V25.8289H27.59V18.4167H40.7115V17.5044H27.5614ZM40.6542 13.1996V0H45.1235V4.73246H48.3608V8.32456H45.1235V13.1996H40.6542Z" fill="#FBD617"/>
<path d="M49.5648 10.7193H73V13.9408H63.5171V15.0811H70.2783V21.8662H56.5266V22.6075H70.9372V25.8289H52.1146V18.9298H65.8663V18.2171H52.0859V15.0811H59.0191V13.9408H49.5648V10.7193ZM50.2524 7.07018C55.1514 6.92763 57.3288 6.01535 58.2169 5.07456H51.6276V1.85307H58.9904V0.0285101H63.4884V1.85307H70.8799V5.07456H64.2619C65.1501 6.01535 67.3274 6.92763 72.2265 7.07018L71.0232 10.3487C66.0095 10.1206 62.8868 9.03728 61.2537 7.38377C59.5921 9.03728 56.4693 10.1206 51.4843 10.3487L50.2524 7.07018Z" fill="#FBD617"/>
</svg>
