<svg width="124" height="44" viewBox="0 0 124 44" fill="none" xmlns="http://www.w3.org/2000/svg">
<path d="M19.4659 26.3904C28.7609 26.3904 34.698 29.7193 34.698 35.2193C34.698 40.7193 28.7609 44 19.4659 44C10.1709 44 4.23383 40.7193 4.23383 35.2193C4.23383 29.7193 10.1709 26.3904 19.4659 26.3904ZM0 23.6403V2.75H7.54303V7.57456H14.1614V2.75H21.7045V23.6403H0ZM7.54303 17.8026H14.1614V13.364H7.54303V17.8026ZM11.8255 35.2193C11.8255 37.3421 14.3074 38.2105 19.4659 38.2105C24.6244 38.2105 27.1063 37.3421 27.1063 35.2193C27.1063 33.0965 24.6244 32.2763 19.4659 32.2763C14.3074 32.2763 11.8255 33.0965 11.8255 35.2193ZM26.5223 25.5702V0H34.114V9.74562H39.6131V15.9211H34.114V25.5702H26.5223Z" fill="#FBD617"/>
<path d="M42.9234 1.49561H64.0439V7.23684H50.5638V8.92544H63.0706V14.4737H50.5638V16.307C57.1335 16.2588 61.5134 16.114 66.4772 15.3904L67.1098 21.1316C61.1727 22.0482 55.7709 22.0965 46.7679 22.0965H42.9234V1.49561ZM46.8166 29.6228V23.9781H76.6481V36.4254H54.4083V38.0658H77.7674V43.7105H46.8653V31.1667H69.1537V29.6228H46.8166ZM69.0564 22.3377V0H76.6481V8.00877H82.1472V14.0877H76.6481V22.3377H69.0564Z" fill="#FBD617"/>
<path d="M84.1923 18.1404H124V23.5921H107.892V25.5219H119.377V37.0044H96.0178V38.2588H120.496V43.7105H88.5234V32.0351H111.882V30.8289H88.4748V25.5219H100.252V23.5921H84.1923V18.1404ZM85.3602 11.9649C93.6819 11.7237 97.3804 10.1798 98.889 8.58772H87.6961V3.13597H100.203V0.0482479H107.843V3.13597H120.399V8.58772H109.157C110.666 10.1798 114.364 11.7237 122.686 11.9649L120.642 17.5132C112.126 17.1272 106.821 15.2939 104.047 12.4956C101.225 15.2939 95.9204 17.1272 87.4528 17.5132L85.3602 11.9649Z" fill="#FBD617"/>
</svg>
