<svg width="24" height="24" viewBox="0 0 24 24" fill="none" xmlns="http://www.w3.org/2000/svg">
<path fill-rule="evenodd" clip-rule="evenodd" d="M12 24C18.6274 24 24 18.6274 24 12C24 5.37258 18.6274 0 12 0C5.37258 0 0 5.37258 0 12C0 18.6274 5.37258 24 12 24ZM6.92132 10.0674C8.06312 10.0674 8.98874 9.14178 8.98874 7.99997C8.98874 6.85817 8.06312 5.93256 6.92132 5.93256C5.77952 5.93256 4.85391 6.85817 4.85391 7.99997C4.85391 9.14178 5.77952 10.0674 6.92132 10.0674ZM14.1124 7.99997C14.1124 9.14178 13.1868 10.0674 12.045 10.0674C10.9032 10.0674 9.97758 9.14178 9.97758 7.99997C9.97758 6.85817 10.9032 5.93256 12.045 5.93256C13.1868 5.93256 14.1124 6.85817 14.1124 7.99997ZM12.045 15.191C13.1868 15.191 14.1124 14.2654 14.1124 13.1236C14.1124 11.9818 13.1868 11.0562 12.045 11.0562C10.9032 11.0562 9.97758 11.9818 9.97758 13.1236C9.97758 14.2654 10.9032 15.191 12.045 15.191ZM14.1124 18.2472C14.1124 19.389 13.1868 20.3146 12.045 20.3146C10.9032 20.3146 9.97758 19.389 9.97758 18.2472C9.97758 17.1054 10.9032 16.1798 12.045 16.1798C13.1868 16.1798 14.1124 17.1054 14.1124 18.2472ZM17.1687 10.0674C18.3105 10.0674 19.2361 9.14178 19.2361 7.99997C19.2361 6.85817 18.3105 5.93256 17.1687 5.93256C16.0269 5.93256 15.1012 6.85817 15.1012 7.99997C15.1012 9.14178 16.0269 10.0674 17.1687 10.0674Z" fill="#C5C9CE"/>
</svg>
